<?xml version="1.0" encoding="UTF-8" standalone="no"?>
<svg
   viewBox="0 0 512 512"
   version="1.1"
   id="svg24"
   sodipodi:docname="webigail.svg"
   inkscape:version="1.3 (0e150ed, 2023-07-21)"
   xmlns:inkscape="http://www.inkscape.org/namespaces/inkscape"
   xmlns:sodipodi="http://sodipodi.sourceforge.net/DTD/sodipodi-0.dtd"
   xmlns="http://www.w3.org/2000/svg"
   xmlns:svg="http://www.w3.org/2000/svg">
  <sodipodi:namedview
     id="namedview24"
     pagecolor="#ffffff"
     bordercolor="#000000"
     borderopacity="0.25"
     inkscape:showpageshadow="2"
     inkscape:pageopacity="0.0"
     inkscape:pagecheckerboard="0"
     inkscape:deskcolor="#d1d1d1"
     inkscape:zoom="1.5175781"
     inkscape:cx="256"
     inkscape:cy="256"
     inkscape:window-width="1392"
     inkscape:window-height="942"
     inkscape:window-x="0"
     inkscape:window-y="25"
     inkscape:window-maximized="0"
     inkscape:current-layer="layer1" />
  <defs
     id="defs1">
    <style
       id="style1">.cls-1{fill:#d31a11;}.cls-2{fill:#707789;}.cls-3{fill:#fff;}.cls-4{fill:#5b6272;}.cls-5{fill:#ff7045;}.cls-6{fill:#ffe4c2;}.cls-7{fill:#23a8fe;}.cls-8{fill:#f92814;}.cls-9{fill:#ffda45;}.cls-10{fill:#76d67b;}.cls-11{fill:#ddbd36;}</style>
  </defs>
  <title
     id="title1">Development</title>
  <g
     id="BULINE">
    <circle
       class="cls-1"
       cx="256"
       cy="256"
       r="256"
       id="circle1" />
  </g>
  <g
     id="Icons">
    <path
       class="cls-2"
       d="M99.09,40H423.9a35.17,35.17,0,0,1,35.17,35.17V294.7a0,0,0,0,1,0,0H63.91a0,0,0,0,1,0,0V75.17A35.17,35.17,0,0,1,99.09,40Z"
       id="path1" />
    <path
       class="cls-3"
       d="M118.57,61.57H404.43A31.63,31.63,0,0,1,436.06,93.2V261.94A32.76,32.76,0,0,1,403.3,294.7H119.69a32.76,32.76,0,0,1-32.76-32.76V93.2A31.63,31.63,0,0,1,118.57,61.57Z"
       id="path2" />
    <rect
       class="cls-2"
       x="16.36"
       y="294.7"
       width="479.29"
       height="69.47"
       rx="24.18"
       id="rect2" />
    <path
       class="cls-4"
       d="M202.87,294.7H320.12a0,0,0,0,1,0,0v11.87a21.54,21.54,0,0,1-21.54,21.54H224.41a21.54,21.54,0,0,1-21.54-21.54V294.7A0,0,0,0,1,202.87,294.7Z"
       id="path3" />
    <path
       class="cls-5"
       d="M76.08,276.6h9.53a9.53,9.53,0,0,1,9.53,9.53v8.58a0,0,0,0,1,0,0H66.56a0,0,0,0,1,0,0v-8.58A9.53,9.53,0,0,1,76.08,276.6Z"
       id="path4" />
    <path
       class="cls-5"
       d="M112,276.6h9.53a9.53,9.53,0,0,1,9.53,9.53v8.58a0,0,0,0,1,0,0H102.47a0,0,0,0,1,0,0v-8.58A9.53,9.53,0,0,1,112,276.6Z"
       id="path5" />
    <path
       class="cls-5"
       d="M147.9,276.6h9.53a9.53,9.53,0,0,1,9.53,9.53v8.58a0,0,0,0,1,0,0H138.38a0,0,0,0,1,0,0v-8.58a9.53,9.53,0,0,1,9.53-9.53Z"
       id="path6" />
    <path
       class="cls-5"
       d="M183.81,276.6h9.53a9.53,9.53,0,0,1,9.53,9.53v8.58a0,0,0,0,1,0,0H174.29a0,0,0,0,1,0,0v-8.58a9.53,9.53,0,0,1,9.53-9.53Z"
       id="path7" />
    <path
       class="cls-5"
       d="M231.11,276.6h60.78A17.43,17.43,0,0,1,309.32,294v.68a0,0,0,0,1,0,0H213.68a0,0,0,0,1,0,0V294a17.43,17.43,0,0,1,17.43-17.43Z"
       id="path8" />
    <path
       class="cls-5"
       d="M333.68,276.6h9.53a9.53,9.53,0,0,1,9.53,9.53v8.58a0,0,0,0,1,0,0H324.16a0,0,0,0,1,0,0v-8.58A9.53,9.53,0,0,1,333.68,276.6Z"
       id="path9" />
    <path
       class="cls-5"
       d="M369.59,276.6h9.53a9.53,9.53,0,0,1,9.53,9.53v8.58a0,0,0,0,1,0,0H360.07a0,0,0,0,1,0,0v-8.58A9.53,9.53,0,0,1,369.59,276.6Z"
       id="path10" />
    <path
       class="cls-5"
       d="M405.5,276.6H415a9.53,9.53,0,0,1,9.53,9.53v8.58a0,0,0,0,1,0,0H396a0,0,0,0,1,0,0v-8.58a9.53,9.53,0,0,1,9.53-9.53Z"
       id="path11" />
    <path
       class="cls-5"
       d="M441.41,276.6h9.53a9.53,9.53,0,0,1,9.53,9.53v8.58a0,0,0,0,1,0,0H431.89a0,0,0,0,1,0,0v-8.58A9.53,9.53,0,0,1,441.41,276.6Z"
       id="path12" />
    <path
       class="cls-6"
       d="M427.14,100.29V244.74A23.2,23.2,0,0,1,404,267.93H119a23.18,23.18,0,0,1-23.17-23.19V100.29A23.17,23.17,0,0,1,119,77.11H404A23.18,23.18,0,0,1,427.14,100.29Z"
       id="path13" />
    <path
       class="cls-7"
       d="M427.14,100.29V113.8H95.86V100.29A23.17,23.17,0,0,1,119,77.11H404A23.18,23.18,0,0,1,427.14,100.29Z"
       id="path14" />
    <circle
       class="cls-8"
       cx="126.03"
       cy="95.45"
       r="9.23"
       id="circle14" />
    <circle
       class="cls-9"
       cx="155.21"
       cy="95.45"
       r="9.23"
       id="circle15" />
    <circle
       class="cls-10"
       cx="184.39"
       cy="95.45"
       r="9.23"
       id="circle16" />
    <path
       class="cls-9"
       d="M488.08,364.17a256.07,256.07,0,0,1-440.17,41,254.5,254.5,0,0,1-24-41Z"
       id="path16" />
    <path
       class="cls-11"
       d="M464.09,405.14a256,256,0,0,1-416.18,0Z"
       id="path17" />
    <path
       class="cls-3"
       d="M279.18,110.21h-6.9a1.81,1.81,0,0,1-1.71-1.22l-9-25.38a1.82,1.82,0,0,1,1.72-2.43H272a1.83,1.83,0,0,1,1.72,1.22L275,85.94a1.82,1.82,0,0,0,3.42,0l1.35-3.6a1.82,1.82,0,0,1,1.71-1.19h6.41a1.81,1.81,0,0,1,1.69,1.16L291,86a1.82,1.82,0,0,0,3.42-.08l1.17-3.47a1.82,1.82,0,0,1,1.73-1.25H306a1.83,1.83,0,0,1,1.73,2.41L299.18,109a1.82,1.82,0,0,1-1.73,1.24h-6.92a1.84,1.84,0,0,1-1.7-1.15l-2.37-5.94a1.82,1.82,0,0,0-3.4,0L280.89,109A1.84,1.84,0,0,1,279.18,110.21Z"
       id="path18" />
    <path
       class="cls-3"
       d="M327.05,110.21h-6.9a1.81,1.81,0,0,1-1.71-1.22l-9-25.38a1.82,1.82,0,0,1,1.72-2.43h8.67a1.83,1.83,0,0,1,1.72,1.22l1.26,3.54a1.82,1.82,0,0,0,3.42,0l1.35-3.6a1.83,1.83,0,0,1,1.71-1.19h6.41a1.81,1.81,0,0,1,1.69,1.16L338.85,86a1.83,1.83,0,0,0,3.43-.08l1.16-3.47a1.82,1.82,0,0,1,1.73-1.25h8.7a1.83,1.83,0,0,1,1.73,2.41L347.05,109a1.82,1.82,0,0,1-1.73,1.24H338.4a1.84,1.84,0,0,1-1.7-1.15l-2.37-5.94a1.82,1.82,0,0,0-3.4,0L328.76,109A1.84,1.84,0,0,1,327.05,110.21Z"
       id="path19" />
    <path
       class="cls-3"
       d="M374.92,110.21H368a1.81,1.81,0,0,1-1.71-1.22l-9-25.38a1.82,1.82,0,0,1,1.72-2.43h8.67a1.83,1.83,0,0,1,1.72,1.22l1.26,3.54a1.82,1.82,0,0,0,3.42,0l1.35-3.6a1.83,1.83,0,0,1,1.71-1.19h6.41a1.81,1.81,0,0,1,1.69,1.16L386.72,86a1.83,1.83,0,0,0,3.43-.08l1.16-3.47A1.82,1.82,0,0,1,393,81.18h8.7a1.83,1.83,0,0,1,1.73,2.41L394.92,109a1.82,1.82,0,0,1-1.73,1.24h-6.92a1.84,1.84,0,0,1-1.7-1.15l-2.37-5.94a1.82,1.82,0,0,0-3.4,0L376.63,109A1.84,1.84,0,0,1,374.92,110.21Z"
       id="path20" />
    <path
       class="cls-3"
       d="M402.17,104.48a6.2,6.2,0,1,1,1.81,4.38A6,6,0,0,1,402.17,104.48Z"
       id="path21" />
    <rect
       class="cls-3"
       x="144.31"
       y="127.88"
       width="237.12"
       height="29.22"
       rx="7.87"
       id="rect21" />
    <rect
       class="cls-3"
       x="144.31"
       y="175.19"
       width="237.12"
       height="14.61"
       rx="7.31"
       id="rect22" />
    <rect
       class="cls-3"
       x="144.31"
       y="203.22"
       width="237.12"
       height="14.61"
       rx="7.31"
       id="rect23" />
    <rect
       class="cls-3"
       x="144.31"
       y="231.25"
       width="237.12"
       height="14.61"
       rx="7.31"
       id="rect24" />
    <g
       inkscape:groupmode="layer"
       id="layer1"
       inkscape:label="Bowtie">
      <path
         d="m 335.65,364.35928 c -25.53848,0 -44.28798,18.63374 -55.01607,33.10622 a 32.48151,25.861193 0 0 0 -44.01292,0 C 225.89286,382.99302 207.1324,364.35928 181.60488,364.35928 a 40.909978,32.571787 0 0 0 -38.73133,17.98546 51.83618,41.271029 0 0 0 -5.28153,17.05681 72.060098,57.372951 0 0 0 8.28541,26.28171 72.060098,57.372951 0 0 0 -8.28541,26.28171 51.83618,41.271029 0 0 0 5.28153,17.05681 40.909978,32.571787 0 0 0 38.73133,17.98546 c 25.52752,0 44.28798,-18.63373 55.01613,-33.10617 a 32.48151,25.861193 0 0 0 44.01292,0 c 10.72809,14.47244 29.47759,33.10617 55.01607,33.10617 a 42.780526,34.061083 0 0 0 44.01292,-35.04227 72.060098,57.372951 0 0 0 -8.28547,-26.28171 72.060098,57.372951 0 0 0 8.28547,-26.28171 A 42.780526,34.061083 0 0 0 335.65,364.35928 Z M 181.60488,469.48609 a 20.69706,16.478626 0 0 1 -22.00643,-17.52112 43.209651,34.402745 0 0 1 7.77928,-20.14931 11.003222,8.7605666 0 0 0 0,-12.38742 43.110622,34.3239 0 0 1 -7.77928,-19.9566 20.73007,16.504908 0 0 1 22.00643,-17.5912 c 18.81553,0 36.17863,23.27682 43.0116,35.04227 h -21.00511 a 11.003222,8.7605666 0 0 0 0,17.52111 h 21.00511 c -6.83297,11.76544 -24.19607,35.04227 -43.0116,35.04227 z m 77.02256,-26.28167 a 11.003222,8.7605666 0 0 1 -11.00321,-8.7606 v -17.52111 a 11.003222,8.7605666 0 0 1 22.00643,0 v 17.52111 a 11.003222,8.7605666 0 0 1 -11.00322,8.7606 z m 91.24972,-11.32745 a 43.110622,34.3239 0 0 1 7.77927,20.01791 20.741073,16.513668 0 0 1 -22.00643,17.59121 c -18.82649,0 -36.17857,-23.27683 -43.0116,-35.04227 h 21.00517 a 11.003222,8.7605666 0 0 0 0,-17.52111 H 292.6384 c 6.83303,-11.76545 24.20709,-35.04227 43.0116,-35.04227 a 20.708063,16.487386 0 0 1 22.00643,17.52111 43.209651,34.402745 0 0 1 -7.77927,20.14932 11.003222,8.7605666 0 0 0 0,12.3261 z"
         id="path1-9"
         style="stroke-width:9.818;fill:#ff00c4;fill-opacity:1;stroke-dasharray:none" />
    </g>
  </g>
</svg>
